REM DIRINDEX 1\2,1\3,1\4,1\5
REM DIRNAME "folder01","folder02","folder03","folder04","folder05"
TITLE ""
FILE "1Q_t_1249-1258.mp3" MP3
  TRACK 01 AUDIO
    TITLE "3:cjc172_4717"
    INDEX 01 00:00:00
  TRACK 02 AUDIO
    TITLE "0:"
    INDEX 01 00:01:31
  TRACK 03 AUDIO
    TITLE "4:cjc172_4718"
    INDEX 01 00:01:39
  TRACK 04 AUDIO
    TITLE "0:"
    INDEX 01 00:02:74
  TRACK 05 AUDIO
    TITLE "5:cjc172_4719"
    INDEX 01 00:03:05
  TRACK 06 AUDIO
    TITLE "0:"
    INDEX 01 00:08:43
  TRACK 07 AUDIO
    TITLE "3:cjc172_4720"
    INDEX 01 00:09:13
  TRACK 08 AUDIO
    TITLE "0:"
    INDEX 01 00:10:44
  TRACK 09 AUDIO
    TITLE "4:cjc172_4721"
    INDEX 01 00:10:54
  TRACK 10 AUDIO
    TITLE "0:"
    INDEX 01 00:12:53
  TRACK 11 AUDIO
    TITLE "5:cjc172_4722"
    INDEX 01 00:12:61
  TRACK 12 AUDIO
    TITLE "0:"
    INDEX 01 00:19:17
  TRACK 13 AUDIO
    TITLE "3:cjc172_4723"
    INDEX 01 00:19:63
  TRACK 14 AUDIO
    TITLE "0:"
    INDEX 01 00:20:72
  TRACK 15 AUDIO
    TITLE "4:cjc172_4724"
    INDEX 01 00:21:07
  TRACK 16 AUDIO
    TITLE "0:"
    INDEX 01 00:22:12
  TRACK 17 AUDIO
    TITLE "5:cjc172_4725"
    INDEX 01 00:22:18
  TRACK 18 AUDIO
    TITLE "0:"
    INDEX 01 00:26:57
  TRACK 19 AUDIO
    TITLE "3:cjc172_4726"
    INDEX 01 00:27:29
  TRACK 20 AUDIO
    TITLE "0:"
    INDEX 01 00:28:52
  TRACK 21 AUDIO
    TITLE "4:cjc172_4727"
    INDEX 01 00:28:61
  TRACK 22 AUDIO
    TITLE "0:"
    INDEX 01 00:30:07
  TRACK 23 AUDIO
    TITLE "5:cjc172_4728"
    INDEX 01 00:30:13
  TRACK 24 AUDIO
    TITLE "0:"
    INDEX 01 00:35:56
  TRACK 25 AUDIO
    TITLE "3:cjc172_4729"
    INDEX 01 00:36:26
  TRACK 26 AUDIO
    TITLE "0:"
    INDEX 01 00:37:33
  TRACK 27 AUDIO
    TITLE "4:cjc172_4730"
    INDEX 01 00:37:39
  TRACK 28 AUDIO
    TITLE "0:"
    INDEX 01 00:39:48
  TRACK 29 AUDIO
    TITLE "5:cjc172_4731"
    INDEX 01 00:39:55
  TRACK 30 AUDIO
    TITLE "0:"
    INDEX 01 00:46:18
  TRACK 31 AUDIO
    TITLE "3:cjc172_4732"
    INDEX 01 00:46:61
  TRACK 32 AUDIO
    TITLE "0:"
    INDEX 01 00:47:73
  TRACK 33 AUDIO
    TITLE "4:cjc172_4733"
    INDEX 01 00:48:05
  TRACK 34 AUDIO
    TITLE "0:"
    INDEX 01 00:51:06
  TRACK 35 AUDIO
    TITLE "5:cjc172_4734"
    INDEX 01 00:51:12
  TRACK 36 AUDIO
    TITLE "0:"
    INDEX 01 00:57:32
  TRACK 37 AUDIO
    TITLE "3:cjc172_4735"
    INDEX 01 00:58:06
  TRACK 38 AUDIO
    TITLE "0:"
    INDEX 01 00:59:37
  TRACK 39 AUDIO
    TITLE "4:cjc172_4736"
    INDEX 01 00:59:42
  TRACK 40 AUDIO
    TITLE "0:"
    INDEX 01 01:01:06
  TRACK 41 AUDIO
    TITLE "5:cjc172_4737"
    INDEX 01 01:01:12
  TRACK 42 AUDIO
    TITLE "0:"
    INDEX 01 01:07:40
  TRACK 43 AUDIO
    TITLE "3:cjc172_4738"
    INDEX 01 01:08:12
  TRACK 44 AUDIO
    TITLE "0:"
    INDEX 01 01:09:10
  TRACK 45 AUDIO
    TITLE "4:cjc172_4739"
    INDEX 01 01:09:17
  TRACK 46 AUDIO
    TITLE "0:"
    INDEX 01 01:10:15
  TRACK 47 AUDIO
    TITLE "5:cjc172_4740"
    INDEX 01 01:10:23
  TRACK 48 AUDIO
    TITLE "0:"
    INDEX 01 01:13:74
  TRACK 49 AUDIO
    TITLE "3:cjc172_4741"
    INDEX 01 01:14:44
  TRACK 50 AUDIO
    TITLE "0:"
    INDEX 01 01:15:51
  TRACK 51 AUDIO
    TITLE "4:cjc172_4742"
    INDEX 01 01:15:57
  TRACK 52 AUDIO
    TITLE "0:"
    INDEX 01 01:16:68
  TRACK 53 AUDIO
    TITLE "5:cjc172_4743"
    INDEX 01 01:17:01
  TRACK 54 AUDIO
    TITLE "0:"
    INDEX 01 01:22:69
  TRACK 55 AUDIO
    TITLE "3:cjc172_4744"
    INDEX 01 01:23:39
  TRACK 56 AUDIO
    TITLE "0:"
    INDEX 01 01:24:56
  TRACK 57 AUDIO
    TITLE "4:cjc172_4745"
    INDEX 01 01:24:64
  TRACK 58 AUDIO
    TITLE "0:"
    INDEX 01 01:26:65
  TRACK 59 AUDIO
    TITLE "5:cjc172_4746"
    INDEX 01 01:26:71
  TRACK 60 AUDIO
    TITLE "0:"
    INDEX 01 01:31:39
